# File produced by Open Asset Import Library (http://www.assimp.sf.net)
# (assimp v3.1.202510665)

mtllib Sign.mtl

# vertex positions
v -3.623293 1.671418 0.438798
v -3.634811 1.682936 0.438798
v -3.634811 1.682936 0.415757
v -3.623293 1.671418 0.415757
v -3.623293 1.682936 0.450316
v -2.824506 1.671418 0.438798
v -2.824506 1.682936 0.450316
v -3.623293 1.890648 0.450316
v -3.634811 1.890648 0.438798
v -2.812988 1.682936 0.438798
v -2.824506 1.671418 0.415757
v -2.812988 1.682936 0.415757
v -2.812988 1.890648 0.438798
v -2.824506 1.890648 0.450316
v -3.623293 1.902166 0.438798
v -3.623293 1.902166 0.415757
v -3.634811 1.890648 0.415757
v -2.824506 1.902166 0.438798
v -2.812988 1.890648 0.415757
v -2.824506 1.902166 0.415757
v -3.623293 1.890648 0.404238
v -3.623293 1.682936 0.404238
v -2.824506 1.890648 0.404238
v -2.824506 1.682936 0.404238

# UV coordinates
vt 0.232724 0.221241
vt 0.232724 0.224342
vt 0.226521 0.224342
vt 0.226521 0.221241
vt 0.236807 0.219367
vt 0.233706 0.219367
vt 0.233706 0.004313
vt 0.236807 0.004313
vt 0.236807 0.222468
vt 0.292728 0.219367
vt 0.292728 0.222468
vt 0.232724 0.003086
vt 0.232724 0.006187
vt 0.226521 0.006187
vt 0.226521 0.003086
vt 0.236807 0.001212
vt 0.292728 0.001212
vt 0.292728 0.004313
vt 0.298374 0.223372
vt 0.298374 0.220271
vt 0.304577 0.220271
vt 0.304577 0.223372
vt 0.295829 0.219367
vt 0.295829 0.004313
vt 0.298374 0.005217
vt 0.298374 0.002116
vt 0.304577 0.002116
vt 0.304577 0.005217
vt 0.309151 0.221755
vt 0.309151 0.218655
vt 0.365073 0.218655
vt 0.365073 0.221755
vt 0.307678 0.220271
vt 0.307678 0.005217
vt 0.309151 0.003600
vt 0.309151 0.000500
vt 0.365073 0.000500
vt 0.365073 0.003600
vt 0.368174 0.218654
vt 0.368174 0.003600
vt 0.000184 0.002103
vt 0.110823 0.002103
vt 0.110823 0.999500
vt 0.000184 0.999500
vt 0.113352 0.002097
vt 0.223992 0.002097
vt 0.223992 0.999495
vt 0.113352 0.999495

# vertex normals
vn -0.707120 -0.707093 0.000000
vn 0.000000 -0.707105 0.707109
vn -0.707119 0.000000 0.707094
vn 0.707121 -0.707092 0.000000
vn 0.707119 0.000000 0.707094
vn -0.707120 0.707093 0.000000
vn 0.000000 0.707105 0.707109
vn 0.707121 0.707092 0.000000
vn -0.707119 0.000000 -0.707094
vn 0.000000 0.707105 -0.707109
vn 0.707119 0.000000 -0.707094
vn 0.000000 -0.707105 -0.707109
vn 0.000000 0.000000 1.000000
vn 0.000000 1.000000 0.000000
vn 0.000000 0.000000 -1.000000
vn 0.000000 -1.000000 0.000000
vn 1.000000 0.000000 0.000000
vn -1.000000 0.000000 0.000000
vn -0.577365 -0.577341 0.577345
vn -0.577365 -0.577341 0.577345
vn 0.577365 -0.577341 0.577345
vn 0.577365 -0.577341 0.577345
vn -0.577365 0.577341 0.577345
vn -0.577365 0.577341 0.577345
vn 0.577365 0.577341 0.577345
vn 0.577365 0.577341 0.577345
vn -0.577365 0.577341 -0.577345
vn -0.577365 0.577341 -0.577345
vn 0.577365 0.577341 -0.577345
vn 0.577365 0.577341 -0.577345
vn -0.577365 -0.577341 -0.577345
vn -0.577365 -0.577341 -0.577345
vn 0.577365 -0.577341 -0.577345
vn 0.577365 -0.577341 -0.577345

# Mesh
g Sign
usemtl lambert1
f 4/4/1 1/1/1 2/2/1 3/3/1
f 6/7/2 7/8/2 5/5/2 1/6/2
f 5/5/3 8/10/3 9/11/3 2/9/3
f 12/15/4 10/12/4 6/13/4 11/14/4
f 10/16/5 13/17/5 14/18/5 7/8/5
f 15/20/6 16/21/6 17/22/6 9/19/6
f 14/18/7 18/24/7 15/23/7 8/10/7
f 13/26/8 19/27/8 20/28/8 18/25/8
f 21/30/9 22/31/9 3/32/9 17/29/9
f 20/28/10 23/34/10 21/33/10 16/21/10
f 19/36/11 12/37/11 24/38/11 23/35/11
f 24/38/12 11/40/12 4/39/12 22/31/12
f 7/8/13 14/18/13 8/10/13 5/5/13
f 18/25/14 20/28/14 16/21/14 15/20/14
f 23/35/15 24/38/15 22/31/15 21/30/15
f 11/14/16 6/13/16 1/1/16 4/4/16
f 19/43/17 13/44/17 10/41/17 12/42/17
f 9/47/18 17/48/18 3/45/18 2/46/18
f 1/6/19 5/5/20 2/9/20
f 10/16/21 7/8/21 6/7/22
f 9/11/23 8/10/23 15/23/24
f 18/24/25 14/18/26 13/17/26
f 17/22/27 16/21/28 21/33/27
f 23/34/29 20/28/30 19/27/29
f 3/32/31 22/31/31 4/39/32
f 11/40/33 24/38/34 12/37/34
